<?xml version="1.0" encoding="UTF-8"?>
<svg width="150px" height="50px" viewBox="0 0 150 50" version="1.1" xmlns="http://www.w3.org/2000/svg" xmlns:xlink="http://www.w3.org/1999/xlink">
    <!-- Generator: Sketch 54.1 (76490) - https://sketchapp.com -->
    <title>Under Armour</title>
    <desc>Created with Sketch.</desc>
    <defs>
        <polygon id="path-1" points="0.000323954019 0 144.977857 0 144.977857 9.557 0.000323954019 9.557"></polygon>
    </defs>
    <g id="Under-Armour" stroke="none" stroke-width="1" fill="none" fill-rule="evenodd">
        <g id="Group-3" transform="translate(3.000000, 20.000000)">
            <mask id="mask-2" fill="white">
                <use xlink:href="#path-1"></use>
            </mask>
            <g id="Clip-2"></g>
            <path d="M142.049714,3.68857143 C142.049714,2.70928571 141.979714,2.54714286 140.754,2.54714286 L137.225429,2.54714286 C136.634,2.54714286 136.659,2.76 136.659,2.94785714 L136.659,4.64 L140.292571,4.64 C142.049714,4.64 142.049714,4.17785714 142.049714,3.68857143 L142.049714,3.68857143 Z M143.727571,5.79357143 C145.156143,6.05714286 144.966857,8.00071429 144.966857,9.00428571 C144.966857,9.51928571 144.789,9.50642857 144.649714,9.50642857 L142.323286,9.50642857 C141.837571,9.50642857 141.956143,8.69071429 141.956143,8.26571429 C141.956143,7.09785714 141.343286,7.15 141.105429,7.15 L137.686143,7.15 C137.355429,6.54571429 136.716857,5.19214286 136.716857,5.19214286 L136.716857,9.12 C136.716857,9.45571429 136.396857,9.50642857 136.279714,9.50642857 L133.969,9.50642857 C133.967571,9.505 133.707571,9.47857143 133.707571,9.19214286 L133.707571,0.866428571 C133.707571,0.276428571 134.096143,0.0514285714 134.439,0.0514285714 L142.369,0.0514285714 C143.432571,0.0514285714 144.978286,0.0378571429 144.978286,3.085 C144.978286,5.07928571 144.577571,5.18071429 143.727571,5.79357143 L143.727571,5.79357143 Z M74.7304286,5.56785714 C74.6347143,5.35571429 73.4568571,2.97214286 73.3368571,2.72071429 L73.1961429,2.73357143 C73.0668571,2.97214286 71.8275714,5.35571429 71.7347143,5.56785714 L71.8611429,5.70714286 L74.5875714,5.70714286 L74.7304286,5.56785714 Z M75.8982857,1.65571429 C76.3104286,2.56142857 79.1911429,8.08928571 79.794,9.24285714 L79.794,9.55714286 L76.7947143,9.55714286 L75.9325714,7.90285714 L72.2868571,7.90285714 C72.2868571,7.90285714 71.674,6.40928571 71.4961429,5.995 C71.2718571,6.38357143 70.0675714,8.81642857 69.654,9.55714286 L66.6475714,9.55714286 L66.6475714,9.35642857 C67.2604286,8.12714286 71.4497143,0.112857143 71.4497143,0.112857143 L74.1397143,0.112857143 C74.719,0.112857143 75.2847143,0.389285714 75.8982857,1.65571429 L75.8982857,1.65571429 Z M131.986143,0.0378571429 L130.227571,0.0378571429 C129.659714,0.0378571429 129.699,0.464285714 129.699,0.740714286 L129.699,5.71857143 C129.699,6.07 129.624714,7.02428571 128.421143,7.02428571 L125.494714,7.02428571 C124.266857,7.02428571 124.209,6.07 124.209,5.71857143 L124.209,0.740714286 C124.209,0.464285714 124.242571,0.0378571429 123.677571,0.0378571429 L121.929714,0.0378571429 C121.329714,0.0378571429 121.353286,0.437857143 121.353286,0.740714286 L121.353286,5.71857143 C121.353286,6.77285714 121.411857,9.50642857 124.786143,9.50642857 L129.118286,9.50642857 C132.504,9.50642857 132.562571,6.77285714 132.562571,5.71857143 L132.562571,0.740714286 C132.562571,0.464285714 132.625429,0.0378571429 131.986143,0.0378571429 L131.986143,0.0378571429 Z M88.9525714,3.68857143 C88.9525714,2.70928571 88.884,2.54714286 87.654,2.54714286 L84.1254286,2.54714286 C83.534,2.54714286 83.5604286,2.76 83.5604286,2.94785714 L83.5604286,4.64 L87.1932857,4.64 C88.9525714,4.64 88.9525714,4.17785714 88.9525714,3.68857143 L88.9525714,3.68857143 Z M90.6282857,5.79357143 C92.0568571,6.05714286 91.8668571,8.00071429 91.8668571,9.00428571 C91.8668571,9.51928571 91.6897143,9.50642857 91.5504286,9.50642857 L89.224,9.50642857 C88.7404286,9.50642857 88.8561429,8.69071429 88.8561429,8.26571429 C88.8561429,7.09785714 88.244,7.15 88.0068571,7.15 L84.5868571,7.15 C84.2568571,6.54571429 83.6175714,5.19214286 83.6175714,5.19214286 L83.6175714,9.12 C83.6175714,9.45571429 83.2982857,9.50642857 83.1825714,9.50642857 L80.8704286,9.50642857 C80.8682857,9.505 80.6097143,9.47857143 80.6097143,9.19214286 L80.6097143,0.866428571 C80.6097143,0.276428571 80.9975714,0.0514285714 81.3397143,0.0514285714 L89.2718571,0.0514285714 C90.3325714,0.0514285714 91.8804286,0.0378571429 91.8804286,3.085 C91.8804286,5.07928571 91.4775714,5.18071429 90.6282857,5.79357143 L90.6282857,5.79357143 Z M57.5625714,3.68857143 C57.5625714,2.70928571 57.4904286,2.54714286 56.2625714,2.54714286 L52.734,2.54714286 C52.1454286,2.54714286 52.169,2.76 52.169,2.94785714 L52.169,4.64 L55.8018571,4.64 C57.5625714,4.64 57.5625714,4.17785714 57.5625714,3.68857143 L57.5625714,3.68857143 Z M59.2361429,5.79357143 C60.6632857,6.05714286 60.4754286,8.00071429 60.4754286,9.00428571 C60.4754286,9.51928571 60.299,9.50642857 60.1582857,9.50642857 L57.8325714,9.50642857 C57.3475714,9.50642857 57.4647143,8.69071429 57.4647143,8.26571429 C57.4647143,7.09785714 56.854,7.15 56.6182857,7.15 L53.1954286,7.15 C52.8647143,6.54571429 52.2268571,5.19214286 52.2268571,5.19214286 L52.2268571,9.12 C52.2268571,9.45571429 51.9104286,9.50642857 51.7911429,9.50642857 L49.4782857,9.50642857 C49.4761429,9.505 49.2168571,9.47857143 49.2168571,9.19214286 L49.2168571,0.866428571 C49.2168571,0.276428571 49.6061429,0.0514285714 49.9518571,0.0514285714 L57.8797143,0.0514285714 C58.9404286,0.0514285714 60.4868571,0.0378571429 60.4868571,3.085 C60.4868571,5.07928571 60.0868571,5.18071429 59.2361429,5.79357143 L59.2361429,5.79357143 Z M115.890429,2.395 L112.953286,2.395 C111.231143,2.395 111.433286,3.77714286 111.433286,4.65285714 C111.433286,5.63214286 111.348286,7.09785714 112.681857,7.09785714 L116.151143,7.09785714 C117.484714,7.09785714 117.437571,5.63214286 117.437571,4.65285714 C117.437571,3.77714286 117.626143,2.395 115.890429,2.395 L115.890429,2.395 Z M120.388286,4.59071429 C120.388286,6.53428571 120.516857,9.53142857 117.850429,9.53142857 L110.864,9.53142857 C108.234714,9.53142857 108.350429,6.53428571 108.350429,4.59071429 C108.350429,2.81071429 108.163286,0.025 111.455429,0 L117.296857,0 C120.600429,0 120.388286,2.82142857 120.388286,4.59071429 L120.388286,4.59071429 Z M107.302571,0.740714286 C107.302571,0.464285714 107.361143,0.0514285714 106.794714,0.0514285714 L104.032571,0.0514285714 C103.571857,0.0514285714 102.994,-0.05 102.344,1.35357143 C101.850429,2.48357143 100.776143,4.81571429 100.032571,6.05714286 C99.3132857,4.81571429 98.2632857,2.48357143 97.7675714,1.35357143 C97.1068571,-0.05 96.5154286,0.0514285714 96.104,0.0514285714 L93.329,0.0514285714 C92.7418571,0.0514285714 92.774,0.464285714 92.774,0.740714286 L92.774,8.84357143 C92.774,9.10642857 92.7282857,9.50642857 93.329,9.50642857 L94.9347143,9.50642857 C95.5004286,9.50642857 95.4675714,9.10642857 95.4675714,8.84357143 L95.4675714,2.94785714 C96.5754286,5.07928571 98.2154286,8.32785714 98.8047143,9.50642857 L101.271857,9.50642857 C101.886143,8.32785714 103.515429,5.07928571 104.634714,2.94785714 L104.634714,8.84357143 C104.634714,9.10642857 104.589,9.50642857 105.179,9.50642857 L106.794714,9.50642857 C107.385429,9.50642857 107.302571,9.10642857 107.302571,8.84357143 L107.302571,0.740714286 Z M34.3397143,4.89142857 C34.3397143,2.66071429 33.7504286,2.57285714 32.8075714,2.57285714 L28.3204286,2.57285714 L28.3204286,7.01 L33.0168571,7.01 C34.4482857,7.01 34.3397143,5.555 34.3397143,4.89142857 L34.3397143,4.89142857 Z M37.1375714,3.58642857 C37.1375714,7.26285714 37.5154286,9.50642857 33.5025714,9.50642857 L29.264,9.50642857 L28.3461429,7.525 L28.3461429,9.50642857 L25.5725714,9.50642857 L25.5725714,0.0513521025 L33.4332857,0.0514285714 C33.9154286,0.0514285714 37.1375714,-0.0128571429 37.1375714,3.58642857 L37.1375714,3.58642857 Z M10.6332857,0.0378571429 L8.87471429,0.0378571429 C8.309,0.0378571429 8.344,0.464285714 8.344,0.740714286 L8.344,5.71857143 C8.344,6.07 8.27185714,7.02428571 7.069,7.02428571 L4.144,7.02428571 C2.91471429,7.02428571 2.85471429,6.07 2.85471429,5.71857143 L2.85471429,0.740714286 C2.85471429,0.464285714 2.89114286,0.0378571429 2.32614286,0.0378571429 L0.578285714,0.0378571429 C-0.0217142857,0.0378571429 0.000428571429,0.437857143 0.000428571429,0.740714286 L0.000428571429,5.71857143 C0.000428571429,6.77285714 0.0604285714,9.50642857 3.43471429,9.50642857 L7.76542857,9.50642857 C11.1525714,9.50642857 11.2111429,6.77285714 11.2111429,5.71857143 L11.2111429,0.740714286 C11.2111429,0.464285714 11.2697143,0.0378571429 10.6332857,0.0378571429 L10.6332857,0.0378571429 Z M23.9682857,0.0378571429 L22.1961429,0.0378571429 C21.6068571,0.0378571429 21.6418571,0.464285714 21.6418571,0.740714286 L21.6418571,6.73428571 C20.8397143,5.64285714 19.6482857,4.18785714 18.999,3.22428571 C18.1618571,1.95714286 16.8854286,0.0378571429 15.9897143,0.0378571429 L12.8154286,0.0378571429 C12.274,0.0378571429 12.2982857,0.464285714 12.2982857,0.740714286 L12.2982857,8.84357143 C12.2982857,9.10642857 12.2261429,9.50642857 12.8154286,9.50642857 L14.444,9.50642857 C15.0354286,9.50642857 14.9747143,9.10642857 14.9747143,8.84357143 L14.9747143,2.78571429 C16.709,5.05428571 18.4082857,7.2 19.6004286,8.90571429 C20.2375714,9.55714286 20.5447143,9.50642857 21.2418571,9.50642857 L24.4982857,9.50642857 L24.4982857,0.740714286 C24.4982857,0.464285714 24.5332857,0.0378571429 23.9682857,0.0378571429 L23.9682857,0.0378571429 Z M48.1325714,8.36571429 C48.1325714,9.13 48.1797143,9.55714286 47.589,9.55714286 L40.0604286,9.55714286 C39.434,9.55714286 38.209,9.35642857 38.209,7.275 L38.209,2.05714286 C38.209,1.51785714 38.4797143,0.112857143 40.2147143,0.112857143 L47.4597143,0.112857143 C48.0732857,0.112857143 47.9925714,0.54 47.9925714,1.32928571 C47.9925714,2.07 48.0861429,2.48357143 47.4597143,2.48357143 L41.7361429,2.48357143 C41.584,2.48357143 41.064,2.395 41.064,2.97214286 C41.064,3.54928571 40.9582857,3.77714286 41.5361429,3.77714286 L46.599,3.77714286 C46.599,3.77714286 47.3297143,5.25357143 47.4125714,5.50642857 C47.5311429,5.73071429 47.5204286,5.94571429 47.0704286,5.94571429 L41.8311429,5.94571429 L41.0161429,4.26357143 L41.0161429,6.74642857 C41.0161429,7.32428571 41.5011429,7.21142857 41.6411429,7.21142857 L47.589,7.21142857 C48.1797143,7.21142857 48.1325714,7.65214286 48.1325714,8.36571429 L48.1325714,8.36571429 Z" id="Fill-1" fill="#000000" mask="url(#mask-2)"></path>
        </g>
    </g>
</svg>